# xmcd CD database file
#
# Track frame offsets:
#	151
#	15448
#	28539
#	42108
#	49557
#	66958
#	82501
#	92602
#	104123
#	116042
#	123893
#	139260
#
# Disc length: 2012 seconds
#
# Revision: 0
# Processed by: cddbd v1.5.1PL0 Copyright (c) Steve Scherf et al.
# Submitted via: Feurio! 1.67 - http://www.feurio.com
#
DISCID=9107da0c
DTITLE=Ramona and Hannes - Wir sind wir
DYEAR=1900
DGENRE=Country
TTITLE0=Über'm Tale
TTITLE1=I had a dream
TTITLE2=Hymne für meinen Daddy
TTITLE3=Jag' den Schatten
TTITLE4=Wenn der Wind weint
TTITLE5=Kleine Füße, kleine Hände
TTITLE6=Die Suche nach dem Sinn
TTITLE7=Tramp
TTITLE8=These blues are killing me
TTITLE9=Komm Baby
TTITLE10=Kellerkinder
TTITLE11=Gedanken
EXTD=
EXTT0=
EXTT1=
EXTT2=
EXTT3=
EXTT4=
EXTT5=
EXTT6=
EXTT7=
EXTT8=
EXTT9=
EXTT10=
EXTT11=
PLAYORDER=
